<svg xmlns="http://www.w3.org/2000/svg" viewBox="0 0 512 512"><path fill="#ffa501" d="M298.861 256L79.528 501.801h133.609L432.471 256 213.137 10.199H79.528z"/><g fill="#ffa501"><path d="M213.137 512H79.528a10.199 10.199 0 01-7.61-16.99L285.192 256 71.918 16.99A10.199 10.199 0 0179.528 0h133.61c2.907 0 5.675 1.24 7.61 3.409L440.083 249.21a10.197 10.197 0 010 13.581l-219.336 245.8a10.199 10.199 0 01-7.61 3.409zm-110.84-20.398h106.271L418.802 256 208.568 20.398H102.297l204.175 228.811a10.197 10.197 0 010 13.581L102.297 491.602z"/><path d="M238.341 98.932c-2.806 0-5.598-1.15-7.615-3.409l-6.37-7.139c-3.75-4.203-3.382-10.65.82-14.401 4.206-3.75 10.65-3.381 14.401.82l6.37 7.139c3.75 4.203 3.382 10.65-.82 14.401a10.153 10.153 0 01-6.786 2.589zm149.258 167.267c-2.806 0-5.598-1.15-7.614-3.409L254.391 122.042c-3.751-4.203-3.383-10.65.819-14.4 4.206-3.752 10.651-3.382 14.4.819L395.204 249.21c3.751 4.203 3.383 10.65-.819 14.4a10.159 10.159 0 01-6.786 2.589z"/></g></svg>