<svg xmlns="http://www.w3.org/2000/svg" viewBox="0 0 512 512"><path d="M498.766 224.046L306.933 32.215c-8.535-8.536-19.882-13.235-31.953-13.235-12.07 0-23.418 4.701-31.953 13.235-17.618 17.619-17.618 46.288 0 63.907l114.69 114.69H45.189C20.271 210.812 0 231.083 0 256.001s20.271 45.189 45.189 45.188h312.527l-114.69 114.69c-17.618 17.619-17.618 46.288 0 63.907 8.535 8.536 19.883 13.236 31.953 13.236 12.071 0 23.418-4.7 31.954-13.234l191.832-191.833C507.3 279.418 512 268.07 512 256.001c0-12.07-4.7-23.418-13.234-31.955zm-14.424 49.483L292.509 465.362c-4.682 4.682-10.907 7.261-17.529 7.261s-12.847-2.578-17.529-7.261c-9.667-9.666-9.667-25.393 0-35.059l132.101-132.101a10.2 10.2 0 00-7.212-17.411H45.189c-13.67 0-24.79-11.121-24.79-24.79 0-13.669 11.12-24.79 24.79-24.79h337.15a10.2 10.2 0 007.212-17.411L257.449 81.698c-9.667-9.666-9.667-25.393 0-35.059 4.682-4.682 10.907-7.261 17.529-7.261s12.847 2.578 17.529 7.261L484.34 238.471A24.63 24.63 0 01491.601 256c.001 6.622-2.578 12.847-7.259 17.529z"/><path d="M377.444 143.226l-3.06-3.06c-3.985-3.983-10.441-3.983-14.425 0-3.983 3.984-3.983 10.442 0 14.425l3.06 3.06a10.165 10.165 0 007.212 2.987c2.611 0 5.22-.995 7.213-2.987 3.983-3.984 3.983-10.442 0-14.425zm103.522 103.522l-80.574-80.574c-3.985-3.983-10.441-3.983-14.425 0-3.983 3.984-3.983 10.442 0 14.425l80.574 80.574a10.165 10.165 0 007.212 2.987c2.611 0 5.22-.995 7.213-2.987 3.983-3.984 3.983-10.442 0-14.425z"/></svg>