<svg xmlns="http://www.w3.org/2000/svg" viewBox="0 0 512 512"><path d="M466.811 210.812H154.283l114.691-114.69c17.618-17.619 17.618-46.288 0-63.907-8.536-8.536-19.883-13.235-31.954-13.235-12.07 0-23.418 4.701-31.953 13.235L13.236 224.047C4.7 232.583 0 243.931 0 256.001s4.7 23.417 13.236 31.953l191.832 191.832c8.535 8.536 19.883 13.236 31.953 13.236 12.071 0 23.419-4.7 31.954-13.234 17.618-17.619 17.618-46.288 0-63.907l-114.691-114.69h312.528c24.918 0 45.189-20.271 45.189-45.189s-20.272-45.19-45.19-45.19zm0 69.979H129.66a10.2 10.2 0 00-7.212 17.411L254.55 430.303c9.667 9.666 9.667 25.393 0 35.059-4.682 4.682-10.907 7.261-17.529 7.261-6.621 0-12.847-2.578-17.529-7.261L27.659 273.53c-4.682-4.682-7.261-10.908-7.261-17.529s2.578-12.847 7.261-17.529L219.491 46.639a24.63 24.63 0 0117.529-7.261c6.622 0 12.847 2.578 17.529 7.261 9.667 9.666 9.667 25.393 0 35.059l-132.1 132.101a10.199 10.199 0 007.212 17.411h337.151c13.67 0 24.79 11.121 24.79 24.79 0 13.67-11.121 24.791-24.791 24.791z"/><path d="M152.042 140.166c-3.984-3.983-10.442-3.983-14.425 0l-3.06 3.06c-3.983 3.984-3.983 10.442 0 14.425 1.991 1.992 4.602 2.987 7.212 2.987s5.221-.995 7.213-2.987l3.06-3.06c3.982-3.984 3.982-10.442 0-14.425zm-26.008 26.008c-3.984-3.983-10.442-3.983-14.425 0l-80.574 80.574c-3.983 3.984-3.983 10.442 0 14.425 1.991 1.992 4.602 2.987 7.212 2.987s5.221-.995 7.213-2.987l80.574-80.574c3.982-3.984 3.983-10.442 0-14.425z"/></svg>