<svg xmlns="http://www.w3.org/2000/svg" viewBox="0 0 512 512"><path fill="#8ae9ff" d="M213.139 256L432.473 10.199h-133.61L79.529 256l219.334 245.801h133.61z"/><g fill="#248a9c"><path d="M432.473 512h-133.61c-2.907 0-5.675-1.24-7.61-3.409l-219.335-245.8a10.197 10.197 0 010-13.581L291.253 3.409A10.199 10.199 0 01298.863 0h133.61a10.199 10.199 0 017.61 16.99L226.808 256l213.275 239.01a10.199 10.199 0 01-7.61 16.99zm-129.041-20.398h106.271L205.529 262.791a10.197 10.197 0 010-13.581L409.703 20.398H303.432L93.198 256l210.234 235.602z"/><path d="M280.036 440.606c-2.806 0-5.598-1.15-7.615-3.409l-6.37-7.139c-3.75-4.203-3.382-10.65.82-14.401 4.205-3.749 10.651-3.381 14.401.82l6.37 7.139c3.75 4.203 3.382 10.65-.82 14.401a10.158 10.158 0 01-6.786 2.589zm-30.033-33.658c-2.806 0-5.598-1.15-7.614-3.409L116.795 262.791c-3.751-4.203-3.383-10.65.819-14.4 4.206-3.752 10.651-3.382 14.4.819l125.594 140.749c3.751 4.203 3.383 10.65-.819 14.4a10.159 10.159 0 01-6.786 2.589z"/></g></svg>